<?xml version="1.0" standalone="no"?><!DOCTYPE svg PUBLIC "-//W3C//DTD SVG 1.1//EN" "http://www.w3.org/Graphics/SVG/1.1/DTD/svg11.dtd"><svg t="1578281031446" class="icon" viewBox="0 0 1024 1024" version="1.1" xmlns="http://www.w3.org/2000/svg" p-id="1069" xmlns:xlink="http://www.w3.org/1999/xlink" width="200" height="200"><defs><style type="text/css"></style></defs><path d="M267.22986667 392.17493335h-86.33230223c-5.05287111 0-8.59022222-1.72487111-10.65756444-5.17233778-1.00238222-2.73180445-1.50983111-5.38055111-1.50983111-7.88138667V331.66222223c0-3.43722667-1.24472889-6.42730667-3.75239112-8.92928-2.50083555-2.53041778-5.59331555-3.80245333-9.22624-3.80245333-3.4304 0-6.40113778 1.27317333-8.90197333 3.80245333-2.50197333 2.50197333-3.76945778 5.49319111-3.76945777 8.92928v47.45898667c0 11.21052445 3.76945778 20.72689778 11.28448 28.51726223 7.05991111 6.87217778 16.18147555 10.30940445 27.36924444 10.30940444H268.04337777c5.06424889 0 8.60273778 1.72487111 10.67008 5.15527111 1.00807111 2.74887111 1.50414222 5.37941333 1.50414223 7.89959111v90.71729778c0 3.42471111 1.26634667 6.42161778 3.78424889 8.94634666 2.47352889 2.51221333 5.56145778 3.77287111 9.21258667 3.77287112 3.40878222 0 6.38748445-1.26065778 8.88376888-3.77287112 2.50766222-2.52359111 3.76945778-5.52163555 3.76945778-8.94634666v-90.71729778c0-11.24010667-3.76945778-20.75534222-11.30268445-28.53546666-7.04170667-6.86762667-16.16782222-10.29233778-27.3351111-10.29233778zM155.73219556 433.82442668c-3.41333333 0-6.36586667 1.26976-8.87921779 3.78197333-2.51790222 2.53610667-3.76832 5.50001778-3.76832 8.93724445V521.73027557c0 3.42812445 1.25041778 6.41251555 3.76832 8.93724444 2.51335111 2.52472889 5.57283555 3.77287111 9.21827557 3.77287112 3.43153778 0 6.39317333-1.24814222 8.9235911-3.77287112 2.48945778-2.52359111 3.73987555-5.50912 3.73987556-8.93724444V446.54364446c0-3.43722667-1.25041778-6.40113778-3.73987556-8.93724445-2.53041778-2.51221333-5.61152-3.78197333-9.26264888-3.78197333zM1018.64106667 395.94894223c-2.50652445-2.53041778-5.47612445-3.77400889-8.87808-3.77400888h-75.39143111c-11.16046222 0-20.40718222 3.53848889-27.71171556 10.64163555-7.26926222 7.10428445-10.93290667 16.48981333-10.93290666 28.18616889v90.77418667c0 3.43722667 1.25155555 6.41024 3.75808 8.92245333 2.51562667 2.53610667 5.60128 3.78766222 9.24558222 3.78766222 3.43153778 0 6.38976-1.25155555 8.88945778-3.78766222 2.52472889-2.51221333 3.78197333-5.48522667 3.78197333-8.92245333v-90.77418667c0-8.71082667 4.20750222-13.05486222 12.65891555-13.05486222h75.70090667c3.40081778 0 6.37155555-1.27317333 8.87808-3.78538667 2.51221333-2.51904 3.75239111-5.60128 3.75239111-9.28540444 0-3.43495111-1.23904-6.42616889-3.75125333-8.92814223zM537.66030222 433.8130489c-3.42471111 0-6.37724445 1.28113778-8.88945778 3.79335111-2.50083555 2.53610667-3.76376889 5.51253333-3.76376888 8.94862222v75.17411556c0 3.42812445 1.26407111 6.42503111 3.76376888 8.92472889 2.51221333 2.53610667 5.58876445 3.79676445 9.22282667 3.79676445 3.43722667 0 6.38293333-1.26065778 8.91562666-3.79676445 2.49173333-2.50083555 3.75239111-5.49774222 3.75239112-8.92472889V446.55502223c0-3.43722667-1.26065778-6.41251555-3.75239112-8.94862222-2.53269333-2.51221333-5.60355555-3.79335111-9.24899555-3.79335111zM637.80522667 392.17493335h-100.14492445c-3.42471111 0-6.37724445 1.24472889-8.89514666 3.77400888-2.49400889 2.50197333-3.75808 5.49319111-3.75808 8.92928 0 3.68412445 1.26407111 6.76522667 3.75808 9.28540445 2.51790222 2.51221333 5.47043555 3.78538667 8.89514666 3.78538667h100.47260445c8.44117333 0 12.65322667 4.34403555 12.65322667 13.05486222v90.71729778c0 3.42471111 1.26293333 6.42161778 3.76945777 8.94634666 2.50083555 2.51221333 5.46474667 3.77287111 8.88376889 3.77287112 3.66364445 0 6.74929778-1.26065778 9.24672-3.77287112 2.49514667-2.52359111 3.75239111-5.52163555 3.75239111-8.94634666v-90.71729778c0-11.69635555-3.64544-21.08188445-10.94087111-28.18616889-7.29088-7.10428445-16.5376-10.64277333-27.69237333-10.64277333zM458.69852444 392.17493335h-86.85112888c-12.77041778 0-22.69184 4.46122667-29.76768 13.40188444-5.69685333 7.08152889-8.54584889 15.57162667-8.54584889 25.42592v64.61098667c0 11.23214222 3.41902222 20.39239111 10.27072 27.46823111 7.74030222 7.57191111 17.20547555 11.34819555 28.38186667 11.34819556h86.5120711c12.75448889 0 22.78855111-4.45098667 30.07829333-13.3996089 5.71164445-7.09632 8.55267555-15.46922667 8.55267557-25.0925511v-64.93411556c0-11.22986667-3.40878222-20.39580445-10.23772445-27.49895111-7.74030222-7.55598222-17.22140445-11.32999111-28.39324445-11.32999111z m12.99114667 52.992v50.44679111c0 2.51221333-0.49493333 5.12568889-1.51438222 7.89617777-2.05710222 3.44860445-5.73098667 5.17347555-11.00344889 5.17347556h-86.98424889c-2.51335111 0-5.11544889-0.54158222-7.86432-1.53372444-3.42471111-2.06051555-5.13137778-5.64337778-5.13137777-10.70307556v-65.44384c0-2.52017778 0.48924445-5.13365333 1.50414222-7.89959111 2.06620445-3.4304 5.62176-5.15527111 10.65870221-5.15527111h87.34606223c2.49969778 0 5.12568889 0.49038222 7.84725334 1.51552 3.4304 2.06165333 5.14275555 5.63882667 5.14275555 10.70876444v14.99477334zM829.43203556 392.17493335H742.58204444c-12.78976 0-22.70549333 4.46122667-29.7517511 13.40188444-5.71960889 7.08152889-8.56860445 15.57162667-8.56860445 25.42592v64.61098667c0 11.23214222 3.4304 20.39239111 10.26275555 27.46823111 7.72437333 7.57191111 17.19637333 11.34819555 28.37162667 11.34819556h86.53482666c12.75448889 0 22.78286222-4.45098667 30.06691557-13.3996089 5.72074667-7.09632 8.56860445-15.46922667 8.56860443-25.0925511v-64.93411556c0-11.22986667-3.43722667-20.39580445-10.26275555-27.49895111-7.74826667-7.55598222-17.20547555-11.32999111-28.37162666-11.32999111z m12.99114666 52.992v50.44679111c0 2.51221333-0.50176 5.12568889-1.52234666 7.89617777-2.06051555 3.44860445-5.72871111 5.17347555-11.00344889 5.17347556h-87.00131556c-2.49969778 0-5.11658667-0.54158222-7.84839111-1.53372444-3.4304-2.06051555-5.13706667-5.64337778-5.13706666-10.70307556v-65.44384c0-2.52017778 0.50289778-5.13365333 1.5098311-7.89959111 2.06620445-3.4304 5.61607111-5.15527111 10.66439112-5.15527111h87.34606221c2.49400889 0 5.12227555 0.49038222 7.83701334 1.51552 3.43722667 2.06165333 5.15527111 5.63882667 5.15527111 10.70876444v14.99477334zM96.88860444 364.09571557v-4.31559111c0-3.56693333-1.08657778-6.49671111-3.24949333-8.70968889-2.44508445-2.37681778-5.49888-3.59424-9.05443555-3.59424H16.29297777c-4.05731555 0-7.24536889 1.41425778-9.46517333 4.21432889-1.81361778 2.25393778-2.73749333 4.95160889-2.73749333 8.0896v4.31559111a3.52938667 3.52938667 0 0 0 3.52597333 3.51573333 3.51573333 3.51573333 0 0 0 3.51573333-3.51573333v-4.31559111c0-0.94663111 0.20935111-1.93308445 0.57571557-2.95822223l0.05688888-0.1171911c0.85674667-1.44839111 2.31992889-2.18680889 4.36565334-2.1868089h68.45553778c0.95232 0 1.94446222 0.19228445 2.95253333 0.5688889l0.11946667 0.06257777c1.45863111 0.87267555 2.19136 2.33813333 2.19136 4.34403556v4.60231111c0 1.93308445 1.59971555 3.51573333 3.52597333 3.51573333a3.51914667 3.51914667 0 0 0 3.51345777-3.51573333z" fill="#1296db" p-id="1070"></path><path d="M44.77041777 380.67655113c1.53258667 0.90680889 2.20273778 2.31992889 2.20273779 4.35427555v30.44010667c0 1.99907555 1.57696 3.59424 3.52711111 3.59424a3.53052445 3.53052445 0 0 0 3.52028444-3.52711112v-50.91214222a3.51800889 3.51800889 0 0 0-3.52028444-3.52028444 3.52256 3.52256 0 0 0-3.52711111 3.52028444v9.50499556s-0.70314667-0.36067555-0.92956445-0.45056c-1.08657778-0.40618667-2.53496889-0.67584-4.0448-0.67584h-25.64551111a3.51800889 3.51800889 0 0 0-3.53166223 3.51004444 3.52824889 3.52824889 0 0 0 3.53166223 3.52597334h25.35879111c0.94549333-0.00227555 2.39957333 0.23665778 3.05834666 0.63601778zM84.64611556 380.03825779a3.53507555 3.53507555 0 0 0 3.53166221-3.52597333c0-1.94446222-1.59402667-3.51004445-3.53166221-3.51004445h-22.10588445a3.51573333 3.51573333 0 0 0-3.52142222 3.51004445 3.52711111 3.52711111 0 0 0 3.52142222 3.52597333h22.10588445z" fill="#1296db" p-id="1071"></path><path d="M37.60469334 391.37507557a3.58855111 3.58855111 0 0 0-0.9068089-2.57024 3.50776889 3.50776889 0 0 0-2.62485333-1.18215111c-0.85219555 0-1.67367111 0.32540445-2.34382222 0.91249777l-0.01137778 0.01024-22.71459555 19.97710223a3.43950222 3.43950222 0 0 0-1.14915556 2.41095111c-0.06826667 0.95687111 0.23096889 1.86368 0.85560889 2.56227556a3.50321778 3.50321778 0 0 0 2.64192 1.19466666h0.03413333c0.84992 0 1.66229333-0.32085333 2.29831112-0.89656889l22.72597333-20.01009777a3.56124445 3.56124445 0 0 0 1.19466667-2.40867556zM89.65461334 414.69269335h0.01137777c0.99783111 0 1.95470222-0.44032 2.60323556-1.19466667a3.49297778 3.49297778 0 0 0 0.88860444-2.56227555 3.45998222 3.45998222 0 0 0-1.18784-2.41095112l-22.74986667-20.02830222a3.54759111 3.54759111 0 0 0-2.31992888-0.87267556c-0.97507555 0-1.95470222 0.44487111-2.63168 1.1935289-0.63032889 0.69859555-0.92273778 1.61109333-0.86698667 2.55886222a3.49184 3.49184 0 0 0 1.16508445 2.41095111l22.7373511 20.01009777a3.46567111 3.46567111 0 0 0 2.3506489 0.89543112zM93.60497777 328.48668446h-13.0093511v-6.01770667c0-1.94446222-1.57696-3.53848889-3.50321778-3.53848889a3.55441778 3.55441778 0 0 0-3.55555555 3.53848889v6.01770667H29.29550222v-6.01770667c0-1.94446222-1.58947555-3.53848889-3.52142222-3.53848889a3.54076445 3.54076445 0 0 0-3.52597333 3.53848889v6.01770667H7.38531556a3.50776889 3.50776889 0 0 0-3.51004445 3.51459555c0 1.94446222 1.56672 3.52711111 3.51004445 3.52711112h14.86279111v2.94001777a3.5328 3.5328 0 0 0 3.52597333 3.52824889 3.53621333 3.53621333 0 0 0 3.52142222-3.52824889v-2.94001777h44.24021334v2.94001777c0 1.94446222 1.59516445 3.52824889 3.55555555 3.52824889 1.92625778 0 3.50321778-1.58378667 3.50321778-3.52824889v-2.94001777h13.00935111a3.51573333 3.51573333 0 0 0 3.52142222-3.52711112 3.50435555 3.50435555 0 0 0-3.52028445-3.51459555zM44.07182222 457.95669335h5.98926222a3.52824889 3.52824889 0 0 0 3.53166223-3.51687112 3.52028445 3.52028445 0 0 0-3.53166223-3.51459555h-5.98926222a3.51345778 3.51345778 0 0 0-3.51004445 3.51459555 3.52028445 3.52028445 0 0 0 3.51004445 3.51687112zM75.43011556 457.95669335h5.95512888c1.96039111 0 3.54872889-1.57923555 3.5487289-3.51687112 0-1.94673778-1.5872-3.51459555-3.5487289-3.51459555h-5.95512888a3.52142222 3.52142222 0 0 0-3.52142222 3.51459555 3.52938667 3.52938667 0 0 0 3.52142222 3.51687112z" fill="#1296db" p-id="1072"></path><path d="M44.07182222 473.0424889h18.18055112c0.99100445 0 1.96608-0.41642667 2.61461333-1.15939555 0.03868445-0.04437333 0.05688889-0.05575111 0.09102222-0.06826667l0.02161778-0.03299555a3.49752889 3.49752889 0 0 0 0.79985777-2.24142223v-21.39704889c0-3.58286222-1.08771555-6.5024-3.25632-8.73130666-2.43939555-2.37795555-5.49888-3.59424-9.05329777-3.59424h-9.39804445c-1.93080889 0-3.51004445 1.57582222-3.51004445 3.53848888a3.51118222 3.51118222 0 0 0 3.51004445 3.50549334l9.39804445 0.02048c0.94663111 0 1.92056889 0.18090667 2.96846222 0.56547556l0.10126222 0.05688888c1.45408 0.85560889 2.18112 2.31879111 2.18112 4.34631112v18.16576H44.07182222c-1.93080889 0-3.51004445 1.59971555-3.51004445 3.52597333a3.50776889 3.50776889 0 0 0 3.51004445 3.49980444zM93.75630222 488.24320001c1.87050667-0.04437333 3.37009778-1.61109333 3.37009778-3.50549333a3.50208 3.50208 0 0 0-3.40423111-3.50208l-0.14563555-0.01137778H52.75875556c-4.06755555 0-7.23399111 1.40970667-9.46289779 4.22456889-1.80337778 2.23232-2.73863111 4.94705778-2.7386311 8.07822222v28.64241778c0 3.13344 0.93525333 5.85955555 2.7386311 8.06912 2.21297778 2.82737778 5.39648 4.23708445 8.46734223 4.23708444h40.96796444c2.89564445-0.08078222 4.39523555-1.62360889 4.39523556-3.52597333a3.51345778 3.51345778 0 0 0-3.40423111-3.51687111l-0.12970667-0.01137778h-16.57969778v-9.48679111h16.59107556c1.93308445 0 3.52142222-1.56672 3.52142222-3.50208 0-1.93877333-1.58833778-3.53848889-3.52142222-3.53848889h-16.59107556v-6.08597333h16.59107556c1.93308445 0 3.52142222-1.59971555 3.52142222-3.52597333a3.52142222 3.52142222 0 0 0-3.52142222-3.52597334h-16.59107556v-9.48679111l16.74353778-0.02616889z m-23.80231111 9.51182222h-13.17660444a3.51914667 3.51914667 0 0 0-3.52711111 3.52597334 3.54190222 3.54190222 0 0 0 3.52711111 3.52597333h13.17660444v6.08597333h-13.17660444c-1.94446222 0-3.52711111 1.59971555-3.52711111 3.5384889 0 1.93536 1.58264889 3.50208 3.52711111 3.50208h13.17660444v9.4867911h-17.35224889c-2.54065778 0-3.70574222-1.15939555-4.30307555-2.15267555-0.41187555-0.70769778-0.69290667-2.14926222-0.69290667-3.09816889v-28.64241778c0-0.93297778 0.19228445-1.94787555 0.5632-2.96163555l0.06712889-0.12515556c0.86812445-1.43018667 2.37226667-2.17315555 4.36565333-2.17315555h17.35224889v9.48792888zM12.17991111 490.04544001a3.51800889 3.51800889 0 0 0-3.51004444 3.51687112v37.38624c0 1.93536 1.57240889 3.52597333 3.51004444 3.52597333a3.53962667 3.53962667 0 0 0 3.53848889-3.52597333v-37.38624a3.53166222 3.53166222 0 0 0-3.53848889-3.51687112zM7.37962667 470.88071113c1.95015111 0 3.53848889-1.59971555 3.53848889-3.52597334v-18.18624a3.52483555 3.52483555 0 0 0-3.53848889-3.51687111 3.50663111 3.50663111 0 0 0-3.50321778 3.51687111v18.18624c-0.00113778 1.92625778 1.57127111 3.52597333 3.50321778 3.52597334zM25.58748444 449.16849779v18.18624a3.54759111 3.54759111 0 0 0 3.53166223 3.52597334c1.93308445 0 3.51004445-1.59971555 3.51004444-3.52597334v-18.18624a3.51232 3.51232 0 0 0-3.51004444-3.51687111 3.52483555 3.52483555 0 0 0-3.53166223 3.51687111z" fill="#1296db" p-id="1073"></path><path d="M34.94570667 527.34293335h-0.59164445c-0.93525333 0-1.92625778-0.19342222-2.93432888-0.56433778l-0.13084445-0.06485334c-1.43587555-0.85674667-2.18453333-2.32220445-2.18453333-4.36110222v-38.45688888h1.48593778c1.94446222 0 3.53393778-1.5872 3.53393777-3.51459556a3.53507555 3.53507555 0 0 0-3.53393777-3.52824889h-8.82688v-38.96206222a3.52256 3.52256 0 0 0-3.51573334-3.52938667 3.52028445 3.52028445 0 0 0-3.52142223 3.52938667v38.96206222h-7.35118221c-1.93308445 0-3.49980445 1.57809778-3.49980445 3.52824889 0 1.92625778 1.56672 3.51459555 3.49980445 3.51459556H22.05013334v38.18609777c0 3.54986667 1.08771555 6.47850667 3.2506311 8.70741333 2.45646222 2.39047111 5.49888 3.59424 9.06467556 3.59424h0.58026667a3.52938667 3.52938667 0 0 0 3.52597333-3.52597333c0-1.92739555-1.5872-3.51459555-3.52597333-3.51459555zM84.81564444 435.81667557h-9.38552888a3.5328 3.5328 0 0 0-3.52142222 3.53848889c0 1.93877333 1.58947555 3.50549333 3.52142222 3.50549333l9.38552888 0.02048a8.3968 8.3968 0 0 1 2.94570667 0.56547556l0.11377778 0.05688888c1.46432 0.85560889 2.19136 2.31879111 2.19136 4.34631112v18.16576h-14.63637333c-1.93194667 0-3.52142222 1.59971555-3.52142222 3.52597333 0 1.93877333 1.58947555 3.50208 3.52142222 3.50208h18.16803555a3.50435555 3.50435555 0 0 0 2.62485333-1.15939555l0.10126223-0.10126223a3.54759111 3.54759111 0 0 0 0.80099555-2.24142222v-21.39704889c0-3.57034667-1.08771555-6.5024-3.25632-8.73130666-2.43939555-2.38023111-5.49888-3.59651555-9.05329778-3.59651556z" fill="#1296db" p-id="1074"></path></svg>