<?xml version="1.0" standalone="no"?><!DOCTYPE svg PUBLIC "-//W3C//DTD SVG 1.1//EN" "http://www.w3.org/Graphics/SVG/1.1/DTD/svg11.dtd"><svg t="1578039539038" class="icon" viewBox="0 0 1024 1024" version="1.1" xmlns="http://www.w3.org/2000/svg" p-id="2450" xmlns:xlink="http://www.w3.org/1999/xlink" width="200" height="200"><defs><style type="text/css"></style></defs><path d="M440.92198115 123.63869371a165.26514631 165.26514631 0 0 0-128.32558534 60.9240155c-49.89466851 64.60046563-12.42990023 162.98924942 11.37948672 213.93433145S472.43440355 648.84572688 476.98619733 653.0473832s9.97893347 2.62603549 10.32907208-1.40055211 14.18058979-289.73921394 2.97617294-360.11695559A799.54017394 799.54017394 0 0 0 440.92198115 123.63869371zM170.44035925 256.51607283C161.86197789 257.56648749 97.26151225 321.46667593 91.83437369 384.14138213s21.0082816 104.16606208 95.7627483 154.06072946c75.27967517 53.39604878 254.20020395 151.60976384 257.52651548 143.2064512S375.44617074 543.80432002 315.92270734 449.96733001 179.36887922 255.64072805 170.44035925 256.51607283z m23.98445454 577.72773718C249.39648341 858.92854061 332.90440135 803.78180226 356.36364857 788.90093641l61.79936142-47.0935643-306.89597668 8.22824391a195.55208533 195.55208533 0 0 0 83.15778048 83.85805539z m7.70303659-247.89771947C147.15618077 558.86025573 34.23666859 495.66034221 29.85994354 496.88582558s-21.53348893 79.83146894 13.8304512 139.00479488S147.85645682 712.92098519 179.36887922 717.64784883c35.01380267 5.0770011 245.09661525 2.80110421 242.99578709-1.4005521S257.09952 613.83192535 202.12785038 585.99595195zM711.22853433 184.56270921A164.73993899 164.73993899 0 0 0 583.07801885 123.63869371a799.54017394 799.54017394 0 0 0-49.54452992 167.89118179c-11.20441685 70.02760419 2.80110421 356.26543787 2.97617294 360.11695559s5.77727715 5.77727715 10.5041408 1.40055211 129.37599886-203.78032925 153.0103148-254.55034254 61.2741541-149.33386695 11.20441686-213.93433145zM994.14005646 496.53568699c-4.37672505-1.22548338-117.29623723 61.97443015-172.26790684 89.46026496s-219.01133255 126.57489465-220.23681593 130.25134478 207.98198557 6.47755321 242.99578709 1.4005521c31.5124224-4.72686365 100.31454322-22.93404103 135.67848448-82.10736696s17.50690133-137.7793115 13.8304512-139.00479488zM667.63635143 788.90093641c23.45924722 15.75621063 107.84251107 70.02760419 161.93883478 45.86808092a195.55208533 195.55208533 0 0 0 83.15778048-84.73340131l-306.89597668-8.22824391L667.63635143 788.90093641zM932.16562631 384.14138213c-5.77727715-62.67470621-70.02760419-126.57489465-78.78105429-127.6253093s-86.30902215 99.61426717-145.65741796 193.45125718-132.17710307 223.03792014-128.85079153 231.44123278 182.24684032-89.81040242 257.52651548-143.2064512c75.1046053-49.89466851 102.06523392-91.38602439 95.7627483-154.06072946z" fill="#EA020A" p-id="2451"></path></svg>