<?xml version="1.0" standalone="no"?><!DOCTYPE svg PUBLIC "-//W3C//DTD SVG 1.1//EN" "http://www.w3.org/Graphics/SVG/1.1/DTD/svg11.dtd"><svg t="1578039531093" class="icon" viewBox="0 0 6247 1024" version="1.1" xmlns="http://www.w3.org/2000/svg" p-id="2198" xmlns:xlink="http://www.w3.org/1999/xlink" width="1220.1171875" height="200"><defs><style type="text/css"></style></defs><path d="M5313.46135092 40.09435625c-382.04893219 0-691.73993531 151.68729938-691.73993532 338.78155781s309.69100313 338.78155781 691.73993532 338.78155781 691.6931475-151.71069281 691.6931475-338.78155781S5695.45179811 40.09435625 5313.46135092 40.09435625z m-96.48893625 598.37411062c-271.37147906 0-491.42801438-118.58465719-491.42801438-264.79773843s219.96295969-264.77434406 491.42801438-264.774345 491.41631719 118.52617219 491.41631718 264.76264781-220.0097475 264.80943562-491.41631718 264.80943562zM851.69314748 40.09435625C469.70270029 40.09435625 159.99999998 191.78165469 159.99999998 378.87591406s309.70270031 338.78155781 691.6931475 338.78155781 691.73993531-151.71069281 691.73993531-338.78155781S1233.78886842 40.09435625 851.69314748 40.09435625z m-96.48893625 598.37411062c-271.37147906 0-491.42801438-118.58465719-491.42801438-264.79773843S483.78594436 108.89638344 755.20421123 108.89638344 1246.65561904 227.42255562 1246.65561904 373.65903125 1026.61078092 638.46846688 755.20421123 638.46846688zM3874.54917623 40.09435625A1284.59304 1284.59304 0 0 0 3534.59791373 83.84130969v59.84209031a834.95857313 834.95857313 0 0 1 243.48571969-34.74022781c271.37147906 0 491.41631719 118.53786937 491.41631812 264.76264687s-219.97465594 264.76264781-491.39292375 264.76264781c-190.01852063 0-354.54917625-58.11092719-436.56886594-143.16015187V32h-249.61497281v958.22204906h249.84891375v-395.36017125a1082.74880625 1082.74880625 0 0 0 533.01101438 122.8189875c382.04893219 0 691.6931475-151.64051062 691.6931475-338.73476906S4256.83205029 40.18793281 3874.78311717 40.18793281z m-1518.79130531 0a1284.93225469 1284.93225469 0 0 0-340.16180907 43.74695344v59.84209031a835.27439344 835.27439344 0 0 1 243.53250844-34.74022781c271.37147906 0 491.42801438 118.53786937 491.42801438 264.76264687s-220.05653531 264.76264781-491.42801438 264.76264782c-190.06530844 0-354.78311719-58.11092719-436.56886687-143.16015188V32h-249.66176063v958.22204906h249.86061094v-395.36017125a1082.7020175 1082.7020175 0 0 0 532.99931719 122.8189875c382.04893219 0 691.7516325-151.64051062 691.7516325-338.73476906S2737.80680404 40.18793281 2355.75787092 40.18793281z" fill="#05B570" p-id="2199"></path></svg>