<?xml version="1.0" standalone="no"?><!DOCTYPE svg PUBLIC "-//W3C//DTD SVG 1.1//EN" "http://www.w3.org/Graphics/SVG/1.1/DTD/svg11.dtd"><svg t="1578039503287" class="icon" viewBox="0 0 1024 1024" version="1.1" xmlns="http://www.w3.org/2000/svg" p-id="1296" xmlns:xlink="http://www.w3.org/1999/xlink" width="200" height="200"><defs><style type="text/css"></style></defs><path d="M64.378017 660.786734v-248.110471c0-25.578399 10.23136-48.598958 12.789199-74.177357 5.11568-33.251919 20.462719-66.503838 35.809759-97.197917 20.462719-35.809759 43.483278-69.061677 71.619517-99.755756 35.809759-38.367599 79.293037-71.619517 127.891995-94.640076 25.578399-12.7892 53.714638-23.020559 81.850877-30.694079 48.598958-15.347039 97.197916-17.904879 145.796875-15.34704 46.041118 2.55784 89.524397 12.7892 133.007675 30.694079 51.156798 17.904879 94.640076 46.041118 133.007675 79.293037 25.578399 23.020559 46.041118 48.598958 66.503837 74.177357 30.694079 38.367599 51.156798 81.850877 66.503838 130.449836 20.462719 61.388158 25.578399 125.334155 17.904879 189.280152-10.23136 84.408717-40.925438 158.586074-92.082236 225.089912-43.483278 56.272478-99.755756 102.313596-166.259594 130.449835-43.483278 20.462719-86.966557 33.251919-135.565515 35.809759-17.904879 0-35.809759 5.11568-53.714638 2.55784-35.809759 0-66.503838-15.347039-89.524397-43.483279-40.925438-53.714638-23.020559-130.449835 30.694079-163.701754 17.904879-10.23136 38.367599-15.347039 58.830318-15.347039 71.619517-2.55784 130.449835-30.694079 176.490953-86.966557 23.020559-28.136239 38.367599-61.388158 46.041119-97.197916 7.67352-40.925438 5.11568-79.293037-7.67352-117.660636-20.462719-56.272478-58.830318-102.313596-115.102796-127.891995-43.483278-20.462719-89.524397-28.136239-138.123354-20.462719-74.177357 12.7892-127.891995 53.714638-161.143914 120.218475-15.347039 30.694079-25.578399 61.388158-25.578399 97.197917v424.601424c0 23.020559 0 43.483278-5.11568 66.503837-10.23136 38.367599-35.809759 61.388158-71.619518 74.177358s-69.061677 7.67352-99.755756-15.34704c-30.694079-20.462719-46.041118-51.156798-48.598958-86.966557 2.55784-81.850877 2.55784-163.701754 5.11568-245.55263-2.55784 0 0 0 0 0z" fill="#2C8BCE" p-id="1297"></path><path d="M624.544956 453.601701c0 61.388158-56.272478 115.102796-122.776316 109.987116-56.272478-5.11568-104.871436-53.714638-99.755756-120.218475 5.11568-58.830318 53.714638-104.871436 120.218476-102.313596 56.272478 0 104.871436 53.714638 102.313596 112.544955z" fill="#2C8BCE" p-id="1298"></path></svg>