<?xml version="1.0" standalone="no"?><!DOCTYPE svg PUBLIC "-//W3C//DTD SVG 1.1//EN" "http://www.w3.org/Graphics/SVG/1.1/DTD/svg11.dtd"><svg t="1578039799868" class="icon" viewBox="0 0 3096 1024" version="1.1" xmlns="http://www.w3.org/2000/svg" p-id="4500" xmlns:xlink="http://www.w3.org/1999/xlink" width="604.6875" height="200"><defs><style type="text/css"></style></defs><path d="M566.877 299.628c-1.996 16.839-4.949 31.044-5.121 45.294-0.433 35.824 14.461 63.299 47.49 79.342 15.878 7.711 33.187 13.121 47.658 22.829 8.414 5.653 14.639 17.141 17.566 27.239 1.355 4.663-6.292 15.826-12.021 17.837-10.727 3.747-20.831-0.753-23.323-14.038-1.43-7.598-2.316-15.306-3.598-23.965h-76.17c-12.673 46.684 10.561 87.203 56.775 94.006 24.225 3.567 49.806 2.607 74.172-0.711 31.065-4.234 56.181-20.511 63.473-53.357 8.553-38.592 3.643-75.387-29.834-101.289-14.677-11.355-33.376-17.493-50.145-26.186-9.812-5.087-21.633-8.63-28.413-16.468-5.107-5.898-5.766-17.935-4.044-26.338 0.703-3.417 14.273-7.802 19.623-5.703 5.979 2.352 12.972 11.52 13.019 17.776 0.132 16.257 7.353 20.375 21.78 19.507 13.063-0.788 26.219-0.56 39.315-0.141 11.934 0.377 15.474-5.086 15.891-16.599 1.654-45.805-16.209-67.996-61.833-74.806-10.182-1.516-20.465-2.405-36.529-4.263 30.651-12.324 56.288-23.006 82.209-32.989 215.963-83.202 438.203-144.976 665.372-187.731 138.713-26.111 278.361-48.581 418.428-65.879 195.927-24.207 393.015-33.083 590.386-20.461 115.037 7.36 229.917 19.537 339.073 59.207 41.905 15.223 83.467 35.748 119.582 61.671 63.833 45.841 75.141 111.397 32.823 177.771-19.793 31.035-45.313 59.524-72.496 84.531-73.923 67.988-161.516 115.399-251.636 160.355v-113.14c-27.922 0-54.066-0.512-80.156 0.512-4.208 0.167-11.907 7.547-11.527 10.853 1.263 11.043-8.683 25.435 7.693 32.707 2.774 1.236 6.114 1.217 10.731 2.051 0 13.115-0.035 25.436 0.003 37.761 0.045 12.367-5.364 20.677-18.276 20.622-12.863-0.050-18.386-8.765-18.686-20.731-0.386-15.062-0.192-30.14-0.217-45.217-0.050-29.492-0.396-58.993 0.048-88.479 0.171-11.308 1.697-23.116 16.877-24.393 11.362-0.957 19.423 3.168 20.134 15.822 0.397 7.12 0.062 14.274 0.062 24.314 22.836 0 44.29 0.849 65.538-0.8 3.715-0.288 9.57-11.152 9.419-16.997-1.218-47.275-30.816-77.421-78.65-81.609-66.441-5.819-104.974 23.643-110.122 90.144-3.515 45.456-2.128 91.572 0.663 137.174 2.373 38.814 22.794 57.712 61.564 65.373 3.078 0.608 6.054 1.725 14.349 4.141-17.991 7.438-31.441 13.149-44.999 18.575-241.317 96.454-490.951 164.148-746.139 210.883-126.003 23.081-252.854 42.766-380.035 57.824-187.532 22.203-376.054 31.729-564.919 20.542-122.935-7.289-245.63-19.364-362.325-62.142-38.291-14.032-76.396-32.291-109.617-55.674-69.741-49.089-80.389-116.566-34.759-188.638 28.852-45.567 68.532-80.754 111.028-112.944 68.692-52.017 143.827-93.251 221.181-130.653 3.452-1.68 7.209-2.706 11.644-4.321l0.007-0.006zM1340.454 367.46c1.11 0.405 2.225 0.812 3.335 1.218 0 38.636-0.687 77.285 0.149 115.904 1.507 69.735-12.909 54.646 60.038 56.775 12.463 0.369 15.548-5.255 15.274-16.587-1.918-80.531-3.609-161.068-4.969-241.612-0.212-12.626-5.193-17.252-17.723-17.019-29.469 0.56-58.96 0.668-88.418-0.057-13.902-0.349-19.009 4.684-21.261 18.657-6.214 38.498-14.465 76.675-23.007 120.684l-22.029-136.929h-127.187c0 76.783 0.091 151.367-0.033 225.951-0.075 47.024-0.194 46.171 47.111 47.22 18.813 0.423 25.191-5.218 24.814-24.194-1.017-51.903-0.348-103.837-0.348-155.755 13.756 43.662 22.924 87.686 32.663 131.585 10.673 48.098 10.941 46.898 60.245 48.496 20.22 0.654 26.828-6.862 30.29-25.242 9.407-49.87 20.565-99.421 31.024-149.106l0.023 0.001zM2224.936 410.914c-1.21 0.335-2.411 0.663-3.625 0.997-2.622-5.803-5.341-11.557-7.846-17.411-16.473-38.451-32.729-77.006-49.556-115.31-2.396-5.459-7.295-13.756-11.317-13.922-28.423-1.213-56.918-0.645-85.084-0.645v272.537h71.067v-146.841c5.924 4.475 8.594 9.42 10.935 14.524 18.294 39.798 36.353 79.697 54.993 119.33 2.506 5.335 7.666 13.127 11.909 13.323 26.481 1.228 53.046 0.619 79.729 0.619v-272.053h-71.187c-0.001 49.461-0.001 97.155-0.001 144.846l-0.007 0.001zM1853.116 264.287c-20.41 0-38.65 1.153-56.686-0.315-18.428-1.504-25.029 3.97-24.58 23.51 1.28 55.673 0.318 111.397 0.481 167.093 0.161 57.999 28.022 89.454 85.517 94.176 60.932 5.006 119.242-17.026 116.108-104.059-1.883-52.362-0.307-104.839-0.393-157.26-0.004-6.996-0.627-13.995-0.979-21.289h-78.529c0 9.609 0.003 17.372 0 25.138-0.051 58.326-0.154 116.644-0.119 174.974 0.003 12.037-1.223 22.004-16.901 23.36-16.18 1.396-23.15-5.388-23.223-20.993-0.172-41.93-0.502-83.866-0.677-125.795-0.102-25.361-0.007-50.732-0.007-78.533v-0.001zM1615.288 350.593c21.338 0 40.964 0.679 60.486-0.511 4.491-0.269 11.956-6.602 12.353-10.691 3.584-36.742-6.522-71.424-50.13-77.617-28.031-3.97-57.547-3.092-85.611 0.986-14.406 2.094-31.056 13.078-39.845 25.068-28.252 38.518-13.345 103.667 27.616 127.908 15.667 9.282 33.479 14.897 49.418 23.795 8.75 4.884 18.482 11.745 22.614 20.225 5.087 10.447 4.917 24.592-10.427 28.611-11.894 3.114-25.138-1.223-24.319-15.184 1.441-24.627-11.686-25.897-30.037-24.503-13.686 1.044-27.6-0.661-41.217 0.765-4.626 0.489-11.547 6.214-12.451 10.578-7.209 34.771 14.706 71.719 49.503 81.211 34.767 9.494 70.082 8.481 104.377-3.394 27.342-9.471 42.434-29.9 46.519-58.112 7.39-51.070-13.382-87.825-60.929-108.738-10.774-4.74-21.985-8.505-32.637-13.472-6.445-2.997-14.644-6.097-17.684-11.577-4.041-7.263-6.298-17.511-4.388-25.261 0.976-3.969 13.722-8.641 19.279-6.933 6.343 1.952 11.763 10.023 15.364 16.643 2.544 4.693 1.396 11.378 2.155 20.19l-0.001 0.007zM1036.425 540.336c0.57-3.184 1.458-5.159 1.162-6.944-14.388-84.967-28.678-169.954-43.937-254.772-0.747-4.15-9.875-9.491-15.252-9.652-30.078-0.94-60.233 0.381-90.3-0.823-14.73-0.594-18.931 5.653-21.045 18.62-8.418 51.539-17.763 102.94-26.546 154.427-5.559 32.557-10.752 65.185-16.525 100.303 24.578 0 46.713 0.649 68.741-0.602 3.908-0.222 9.7-7.888 10.637-12.866 3.75-19.868 5.823-40.046 8.719-60.087 5.541-38.337 11.209-76.661 16.816-114.982 1.207 0.001 2.407 0.004 3.617 0.007 9.726 62.593 19.444 125.186 29.103 187.373l74.817-0.004z" fill="#13227A" p-id="4501"></path></svg>