<?xml version="1.0" standalone="no"?><!DOCTYPE svg PUBLIC "-//W3C//DTD SVG 1.1//EN" "http://www.w3.org/Graphics/SVG/1.1/DTD/svg11.dtd"><svg t="1578039755066" class="icon" viewBox="0 0 1024 1024" version="1.1" xmlns="http://www.w3.org/2000/svg" p-id="2702" xmlns:xlink="http://www.w3.org/1999/xlink" width="200" height="200"><defs><style type="text/css"></style></defs><path d="M894.8 506.4c9.8-206.5-186.3-416.1-416.1-416.1S62.5 276.6 62.5 506.4c0 49.5 8.7 97 24.6 141.1-6.2-75 100.9-95.3 125.6-53.4 0 0-17.6-25.6-13.8-87.7 0-154.5 125.2-279.7 279.7-279.7s279.7 125.2 279.7 279.7c0 31.2-5.2 61.1-14.6 89.1 50.3-53 128-0.3 126.7 50.5 0.1 0.1 19.8-60.9 24.4-139.6z" fill="#19B955" p-id="2703"></path><path d="M870.5 646.1c-57.4 161.1-211.3 276.5-392.1 276.5-180 0-333.3-114.2-391.3-274.2-7.1-75.8 100.7-96.4 125.6-54.3 36.8 111.5 141.8 192 265.7 192 123.2 0 227.9-79.7 265.1-190.3 50.3-53.5 128.3-0.7 127 50.3z" fill="#F8B616" p-id="2704"></path><path d="M929.2 827.7m-68.8 0a68.8 68.8 0 1 0 137.6 0 68.8 68.8 0 1 0-137.6 0Z" fill="#F8B616" p-id="2705"></path></svg>