<?xml version="1.0" standalone="no"?><!DOCTYPE svg PUBLIC "-//W3C//DTD SVG 1.1//EN" "http://www.w3.org/Graphics/SVG/1.1/DTD/svg11.dtd"><svg t="1578039262777" class="icon" viewBox="0 0 3626 1024" version="1.1" xmlns="http://www.w3.org/2000/svg" p-id="1043" xmlns:xlink="http://www.w3.org/1999/xlink" width="708.203125" height="200"><defs><style type="text/css"></style></defs><path d="M3264.481039 876.030905h-382.207522a223.231721 223.231721 0 0 1-219.519725-225.663718V631.465877a223.189054 223.189054 0 0 1 219.519725-225.578384h382.207522a223.231721 223.231721 0 0 1 219.477059 225.578384v19.114643a223.359721 223.359721 0 0 1-219.519725 225.663718z m0-614.825898h-382.207522a366.932875 366.932875 0 0 0-362.32488 370.047537v19.114643a366.932875 366.932875 0 0 0 362.32488 370.132871h382.207522A366.932875 366.932875 0 0 0 3626.720587 650.367187V631.465877a366.932875 366.932875 0 0 0-362.239548-370.047537zM549.5191 1023.99872h1.621331c74.70924 0.256 134.527832-34.133291 189.09843-113.493191l344.70357-515.540689a78.975901 78.975901 0 0 0-19.455976-107.818532 74.197241 74.197241 0 0 0-42.666613-13.61065 75.221239 75.221239 0 0 0-62.378589 33.663958l-344.660903 515.498022a82.090564 82.090564 0 0 1-66.090584 46.165276h-0.426666a81.365232 81.365232 0 0 1-66.602583-46.250609L137.914281 307.199616a74.410574 74.410574 0 0 0-105.087869-20.053308 78.890568 78.890568 0 0 0-19.413309 107.818532l344.660903 515.455355A233.770374 233.770374 0 0 0 549.220434 1023.99872h0.298666z m1426.344884 0h1.621331c74.666573 0.256 134.485165-34.133291 189.09843-113.493191l344.703569-515.540689a79.274568 79.274568 0 0 0 13.22665-43.861279 78.250569 78.250569 0 0 0-32.682625-63.99992 74.32524 74.32524 0 0 0-105.087869 20.053308L2042.082567 822.654972a82.133231 82.133231 0 0 1-66.047917 46.165275h-0.554666a81.621231 81.621231 0 0 1-66.602583-46.250609L1564.301831 307.199616a74.32524 74.32524 0 0 0-105.087868-20.053308 78.037236 78.037236 0 0 0-32.767959 63.99992 79.018568 79.018568 0 0 0 13.22665 43.861278l344.703569 515.455356A233.685041 233.685041 0 0 0 1975.522651 1023.99872h0.383999zM1363.768749 90.154554l-79.743901-81.066565A29.866629 29.866629 0 0 0 1262.990208 0h-1.322665a29.866629 29.866629 0 0 0-21.333307 9.130655l-79.701233 81.066566a31.530627 31.530627 0 0 0 0 44.031945l79.701233 81.066565a30.719962 30.719962 0 0 0 21.759973 9.087989 30.378629 30.378629 0 0 0 21.333307-9.002656l79.829233-81.066565a31.530627 31.530627 0 0 0 0-44.031945z m-101.375874 183.466437a76.202571 76.202571 0 0 0-76.117238 76.501238v597.332587a76.031905 76.031905 0 1 0 152.06381 0v-597.332587a76.287905 76.287905 0 0 0-76.031905-76.501238z m0 0" fill="#008CD7" p-id="1044"></path></svg>