<?xml version="1.0" standalone="no"?><!DOCTYPE svg PUBLIC "-//W3C//DTD SVG 1.1//EN" "http://www.w3.org/Graphics/SVG/1.1/DTD/svg11.dtd"><svg t="1578039535402" class="icon" viewBox="0 0 1536 1024" version="1.1" xmlns="http://www.w3.org/2000/svg" p-id="2324" xmlns:xlink="http://www.w3.org/1999/xlink" width="300" height="200"><defs><style type="text/css"></style></defs><path d="M1346.46875 933.875h-178.03125a9.41105732 9.41105732 0 0 1-9.34615366-9.47596179V99.66586545A9.44350955 9.44350955 0 0 1 1168.4375 90.125h178.03125a9.11899045 9.11899045 0 0 1 6.49038455 2.79086545 9.73557724 9.73557724 0 0 1 2.72596179 6.75v824.73317276a9.37860589 9.37860589 0 0 1-9.21634634 9.47596179z m-343.0817309-9.44350955z m-9.28125 9.44350955h-175.46754776a9.37860589 9.37860589 0 0 1-9.28125-9.50841321V400.91706768a131.88461545 131.88461545 0 0 0-130.22956768-133.47476036H296.19471179a9.41105732 9.41105732 0 0 0-9.31370224 9.50841402v647.44831687a9.37860589 9.37860589 0 0 1-9.31370224 9.47596179H99.43870225A9.37860589 9.37860589 0 0 1 90.125 924.43149045V99.56850955A9.41105732 9.41105732 0 0 1 99.43870225 90.125h666.75721096a240.14423089 240.14423089 0 0 1 237.1911059 243.38942275v591.11177949a9.37860589 9.37860589 0 0 1-9.28125 9.24879776zM456.4098559 418.73317276h178.06370142a9.15144269 9.15144269 0 0 1 6.49038536 2.79086545 9.73557724 9.73557724 0 0 1 2.69350957 6.75v496.125a9.73557724 9.73557724 0 0 1-2.69350957 6.71754858 8.98918231 8.98918231 0 0 1-6.49038537 2.75841321h-178.06370142a9.37860589 9.37860589 0 0 1-9.31370223-9.47596179V428.27403821a9.44350955 9.44350955 0 0 1 9.31370224-9.54086546z" fill="#FF6700" p-id="2325"></path></svg>